<svg width="230" height="40" viewBox="0 0 230 40" fill="none" xmlns="http://www.w3.org/2000/svg">
<path d="M24.7227 18.9702C25.8991 18.0532 26.8401 16.8684 27.4676 15.5141C28.0951 14.1598 28.3909 12.6751 28.3306 11.1834C28.3576 4.25474 23.2706 0 15.4416 0H0V39.2141H16.5059C20.4745 39.2141 23.6674 38.1572 26.0667 36.0795C27.2581 35.0512 28.2017 33.7661 28.8265 32.3205C29.4514 30.8749 29.7413 29.3064 29.6745 27.7326C29.7461 25.9551 29.3205 24.1928 28.4455 22.6446C27.5706 21.0964 26.2812 19.8237 24.7227 18.9702ZM10.0118 8.96116H15.162C15.5778 8.93458 15.9945 8.99521 16.3856 9.13916C16.7767 9.28311 17.1335 9.50721 17.4332 9.79714C17.7328 10.0871 17.9688 10.4364 18.126 10.8229C18.2831 11.2094 18.358 11.6244 18.3459 12.0416C18.3636 12.4605 18.2925 12.8785 18.1374 13.2681C17.9823 13.6576 17.7466 14.0098 17.4459 14.3016C17.1452 14.5934 16.7862 14.8182 16.3926 14.9611C15.9989 15.1041 15.5795 15.162 15.162 15.131H10.0118V8.96116ZM16.2353 30.2529H10.0118V23.6405H16.2353C17.1108 23.6405 17.9505 23.9888 18.5696 24.6088C19.1887 25.2289 19.5365 26.0698 19.5365 26.9467C19.5365 27.8236 19.1887 28.6645 18.5696 29.2846C17.9505 29.9046 17.1108 30.2529 16.2353 30.2529Z" fill="#FF0025"/>
<path d="M47.3801 10.4248C45.4033 10.3575 43.4339 10.7008 41.596 11.4331C39.7581 12.1653 38.0914 13.2707 36.7009 14.6795C35.3162 16.0707 34.2275 17.7285 33.5004 19.5528C32.7734 21.3771 32.4231 23.3301 32.4707 25.2938C32.4088 27.2569 32.7544 29.2114 33.4856 31.0338C34.2169 32.8562 35.3179 34.5067 36.7189 35.881C39.5691 38.591 43.3754 40.0273 48.1287 40.0273C53.3872 40.0273 57.4189 38.2929 60.1609 34.8241L53.4413 30.1176C52.0667 31.412 50.2406 32.1157 48.3542 32.0779C45.1072 32.0779 43.0417 30.9578 42.0856 28.6542H61.4236C61.6995 27.5191 61.8299 26.3535 61.8115 25.1854C61.8753 23.2404 61.5464 21.3025 60.8443 19.4879C60.1422 17.6733 59.0814 16.0194 57.7256 14.6253C56.3867 13.2443 54.7754 12.1577 52.9943 11.4345C51.2132 10.7113 49.3012 10.3674 47.3801 10.4248ZM41.9683 22.1682C42.753 19.5395 44.593 18.2477 47.4523 18.2477C48.6553 18.1469 49.8536 18.4897 50.822 19.2117C51.7903 19.9337 52.462 20.9851 52.7107 22.1682H41.9683Z" fill="#FF0025"/>
<path d="M84.1079 20.1174V11.2014H78.2902V3.36035L69.009 6.16071V11.2014H64.8059V20.1174H69.009V28.4642C69.009 32.8906 70.1275 35.971 72.3643 37.7054C74.6012 39.4398 78.5097 39.9427 84.0898 39.214V30.8129C79.8957 31.0388 78.2722 30.7045 78.2722 28.2384V20.1083L84.1079 20.1174Z" fill="#FF0025"/>
<path d="M113.927 18.9702C115.103 18.0532 116.044 16.8684 116.671 15.5141C117.299 14.1598 117.595 12.6751 117.534 11.1834C117.562 4.25474 112.474 0 104.627 0H89.2039V39.2141H105.701C109.678 39.2141 112.862 38.1572 115.271 36.0795C116.46 35.0499 117.403 33.7646 118.028 32.3193C118.652 30.874 118.943 29.3062 118.878 27.7326C118.95 25.9551 118.524 24.1928 117.649 22.6446C116.774 21.0964 115.485 19.8237 113.927 18.9702ZM99.2156 8.96116H104.357C104.773 8.93467 105.19 8.99529 105.582 9.13916C105.973 9.28302 106.331 9.50698 106.631 9.79676C106.931 10.0865 107.168 10.4358 107.326 10.8223C107.485 11.2088 107.561 11.624 107.55 12.0416C107.568 12.4614 107.496 12.8802 107.341 13.2704C107.185 13.6606 106.949 14.0133 106.647 14.3052C106.345 14.5972 105.985 14.8217 105.59 14.9641C105.195 15.1064 104.775 15.1633 104.357 15.131H99.2156V8.96116ZM105.421 30.2529H99.2156V23.6405H105.421C106.297 23.6405 107.136 23.9888 107.755 24.6088C108.374 25.2289 108.722 26.0698 108.722 26.9467C108.722 27.8236 108.374 28.6645 107.755 29.2846C107.136 29.9046 106.297 30.2529 105.421 30.2529Z" fill="#F8E800"/>
<path d="M136.638 10.4248C134.677 10.3933 132.73 10.7588 130.914 11.4992C129.097 12.2396 127.449 13.3398 126.067 14.7337C124.652 16.0806 123.533 17.7081 122.782 19.5123C122.03 21.3165 121.662 23.2579 121.702 25.2125C121.662 27.1751 122.03 29.1245 122.781 30.9375C123.533 32.7505 124.652 34.3876 126.067 35.7455C127.451 37.1321 129.102 38.2239 130.918 38.9552C132.735 39.6864 134.681 40.0418 136.638 40.0002C138.597 40.0519 140.545 39.701 142.364 38.9692C144.182 38.2375 145.831 37.1403 147.209 35.7455C148.624 34.3876 149.743 32.7505 150.495 30.9375C151.246 29.1245 151.614 27.1751 151.575 25.2125C151.614 23.2579 151.246 21.3165 150.494 19.5123C149.743 17.7081 148.624 16.0806 147.209 14.7337C145.832 13.3334 144.185 12.2291 142.367 11.4882C140.549 10.7473 138.6 10.3855 136.638 10.4248ZM136.638 31.039C135.882 31.0487 135.131 30.9029 134.434 30.6106C133.736 30.3182 133.105 29.8856 132.581 29.3395C132.057 28.7933 131.65 28.1453 131.386 27.4354C131.122 26.7256 131.006 25.969 131.046 25.2125C131.016 24.4539 131.139 23.6969 131.408 22.9871C131.676 22.2772 132.086 21.6291 132.611 21.0816C133.136 20.5341 133.766 20.0985 134.464 19.8009C135.161 19.5034 135.912 19.35 136.67 19.35C137.428 19.35 138.178 19.5034 138.875 19.8009C139.573 20.0985 140.203 20.5341 140.728 21.0816C141.253 21.6291 141.663 22.2772 141.932 22.9871C142.201 23.6969 142.324 24.4539 142.293 25.2125C142.336 25.9751 142.22 26.7382 141.953 27.4537C141.686 28.1691 141.274 28.8213 140.743 29.3689C140.211 29.9166 139.572 30.3478 138.865 30.6353C138.159 30.9228 137.4 31.0602 136.638 31.039Z" fill="#F8E800"/>
<path d="M169.253 10.4248C167.292 10.3938 165.345 10.7595 163.529 11.4999C161.713 12.2403 160.064 13.3402 158.682 14.7337C157.267 16.0806 156.148 17.7081 155.397 19.5123C154.645 21.3165 154.277 23.2579 154.317 25.2125C154.277 27.1751 154.645 29.1245 155.396 30.9375C156.148 32.7505 157.267 34.3876 158.682 35.7455C160.067 37.1313 161.717 38.2225 163.534 38.9537C165.35 39.6848 167.296 40.0408 169.253 40.0002C171.212 40.0519 173.16 39.701 174.978 38.9692C176.797 38.2375 178.446 37.1403 179.824 35.7455C181.239 34.3876 182.358 32.7505 183.11 30.9375C183.861 29.1245 184.229 27.1751 184.19 25.2125C184.229 23.2579 183.861 21.3165 183.109 19.5123C182.358 17.7081 181.239 16.0806 179.824 14.7337C178.447 13.3334 176.799 12.2291 174.982 11.4882C173.164 10.7473 171.215 10.3855 169.253 10.4248ZM169.253 31.039C168.497 31.0487 167.746 30.9029 167.049 30.6106C166.351 30.3182 165.72 29.8856 165.196 29.3395C164.672 28.7933 164.265 28.1453 164.001 27.4354C163.737 26.7256 163.621 25.969 163.661 25.2125C163.631 24.4539 163.754 23.6969 164.023 22.9871C164.291 22.2772 164.701 21.6291 165.226 21.0816C165.751 20.5341 166.381 20.0985 167.079 19.8009C167.776 19.5034 168.527 19.35 169.285 19.35C170.043 19.35 170.793 19.5034 171.49 19.8009C172.188 20.0985 172.818 20.5341 173.343 21.0816C173.868 21.6291 174.278 22.2772 174.547 22.9871C174.816 23.6969 174.939 24.4539 174.908 25.2125C174.951 25.9751 174.835 26.7382 174.568 27.4537C174.301 28.1691 173.889 28.8213 173.358 29.3689C172.826 29.9166 172.187 30.3478 171.48 30.6353C170.774 30.9228 170.015 31.0602 169.253 31.039Z" fill="#F8E800"/>
<path d="M219.483 10.4244C217.942 10.3456 216.403 10.6317 214.993 11.2595C213.583 11.8873 212.34 12.8391 211.365 14.0378C209.796 11.6259 207.388 10.4244 204.204 10.4244C201.02 10.4244 198.431 11.5446 196.627 13.839V11.2013H187.337V39.2049H196.627V23.9203C196.627 21.0116 197.962 19.2139 200.488 19.2139C202.833 19.2139 204.005 20.5057 204.005 23.1344V39.2139H213.296V23.9203C213.296 21.0116 214.639 19.2139 217.156 19.2139C219.447 19.2139 220.62 20.5057 220.62 23.1344V39.2139H230V22.0504C230 14.8508 225.968 10.4244 219.483 10.4244Z" fill="#F8E800"/>
</svg>
