<svg width="1310" height="548" viewBox="0 0 1310 548" fill="none" xmlns="http://www.w3.org/2000/svg">
<circle cx="775" cy="150" r="3" fill="white"/>
<circle cx="987" cy="177" r="3" fill="white"/>
<circle cx="1199" cy="204" r="3" fill="white"/>
<circle cx="1307" cy="97" r="3" fill="white"/>
<circle cx="1115" cy="55" r="3" fill="white"/>
<circle cx="923" cy="13" r="3" fill="white"/>
<circle cx="1301" cy="171" r="3" fill="white"/>
<circle cx="1199" cy="326" r="3" fill="white"/>
<circle cx="1097" cy="481" r="3" fill="white"/>
<circle cx="1015" cy="299" r="3" fill="white"/>
<circle cx="1285" cy="433" r="3" fill="white"/>
<circle cx="708" cy="61" r="3" fill="white"/>
<circle cx="210" cy="320" r="3" fill="white"/>
<circle cx="3" cy="465" r="3" fill="white"/>
<circle cx="52" cy="304" r="3" fill="white"/>
<circle cx="6" cy="156" r="3" fill="white"/>
<circle cx="185" cy="78" r="3" fill="white"/>
<circle cx="364" cy="3" r="3" fill="white"/>
<circle cx="402" cy="124" r="3" fill="white"/>
<circle cx="50" cy="223" r="2" fill="white"/>
<circle cx="82" cy="73" r="2" fill="white"/>
<circle cx="296" cy="152" r="2" fill="white"/>
<circle cx="510" cy="21" r="2" fill="white"/>
<circle cx="611" cy="16" r="2" fill="white"/>
<circle cx="886" cy="107" r="2" fill="white"/>
<circle cx="1161" cy="198" r="2" fill="white"/>
<circle cx="1254" cy="96" r="2" fill="white"/>
<circle cx="1280" cy="321" r="2" fill="white"/>
<circle cx="1306" cy="546" r="2" fill="white"/>
<circle cx="857" cy="332" r="2" fill="white"/>
<circle cx="586" cy="331" r="2" fill="white"/>
<line x1="6.21166" y1="152.867" x2="50.2117" y2="222.867" stroke="white" stroke-opacity="0.5" stroke-width="0.5"/>
<line x1="50.2499" y1="222.994" x2="52.2499" y2="303.994" stroke="white" stroke-opacity="0.5" stroke-width="0.5"/>
<line x1="295.936" y1="151.758" x2="401.936" y2="123.758" stroke="white" stroke-opacity="0.5" stroke-width="0.5"/>
<line x1="1161.04" y1="197.753" x2="1199.04" y2="203.753" stroke="white" stroke-opacity="0.5" stroke-width="0.5"/>
<line x1="1198.92" y1="203.762" x2="1300.92" y2="170.762" stroke="white" stroke-opacity="0.5" stroke-width="0.5"/>
<line x1="1254" y1="95.75" x2="1307" y2="96.75" stroke="white" stroke-opacity="0.5" stroke-width="0.5"/>
<line x1="1198.98" y1="325.75" x2="1279.98" y2="320.75" stroke="white" stroke-opacity="0.5" stroke-width="0.5"/>
<line x1="1199.19" y1="325.843" x2="1285.19" y2="432.843" stroke="white" stroke-opacity="0.5" stroke-width="0.5"/>
<line x1="1280.25" y1="320.989" x2="1285.25" y2="432.989" stroke="white" stroke-opacity="0.5" stroke-width="0.5"/>
<line x1="708.2" y1="60.8496" x2="775.2" y2="149.85" stroke="white" stroke-opacity="0.5" stroke-width="0.5"/>
<line x1="774.91" y1="149.767" x2="885.91" y2="106.767" stroke="white" stroke-opacity="0.5" stroke-width="0.5"/>
<line x1="82.0121" y1="72.7503" x2="185.012" y2="77.7503" stroke="white" stroke-opacity="0.5" stroke-width="0.5"/>
</svg>
